<svg width="50" height="50" viewBox="0 0 50 50" fill="none" xmlns="http://www.w3.org/2000/svg">
<path d="M39.0209 11.271L36.3542 13.3543L25 21.7918L13.6459 13.271L10.9792 11.1876C10.351 10.6679 9.58408 10.344 8.77354 10.2558C7.96299 10.1677 7.14441 10.3194 6.4192 10.692C5.694 11.0645 5.09403 11.6417 4.69365 12.3519C4.29326 13.0622 4.11004 13.8743 4.16669 14.6876V38.8334C4.16669 39.5849 4.4652 40.3056 4.99655 40.8369C5.5279 41.3683 6.24857 41.6668 7.00002 41.6668H13.6459V25.5835L25 34.1043L36.3542 25.5835V41.6668H43C43.7515 41.6668 44.4721 41.3683 45.0035 40.8369C45.5348 40.3056 45.8334 39.5849 45.8334 38.8334V14.6876C45.8725 13.8813 45.6765 13.081 45.2693 12.3839C44.8621 11.6869 44.2611 11.1231 43.5395 10.7612C42.8179 10.3993 42.0067 10.2548 41.2045 10.3453C40.4023 10.4358 39.6437 10.7574 39.0209 11.271Z" fill="#333333"/>
</svg>
