<svg width="325" height="130" viewBox="0 0 325 130" fill="none" xmlns="http://www.w3.org/2000/svg">
<path d="M31.2765 5.8C31.2765 5.06667 31.6432 4.7 32.3765 4.7H33.6765C34.4098 4.7 34.7765 5.06667 34.7765 5.8V17.9C34.7765 18.6333 34.4098 19 33.6765 19H32.3765C31.6432 19 31.2765 18.6333 31.2765 17.9V5.8ZM37.286 17.82C37.1793 17.74 37.086 17.6533 37.006 17.56C36.926 17.4533 36.866 17.34 36.826 17.22C36.7993 17.0867 36.7993 16.9467 36.826 16.8C36.866 16.6533 36.9527 16.4867 37.086 16.3L37.706 15.4C37.906 15.1067 38.126 14.9467 38.366 14.92C38.606 14.88 38.8927 14.9533 39.226 15.14C39.346 15.2067 39.486 15.2867 39.646 15.38C39.8193 15.4733 40.0127 15.5733 40.226 15.68C40.4527 15.7733 40.6993 15.8533 40.966 15.92C41.2327 15.9867 41.5193 16.02 41.826 16.02C42.346 16.02 42.726 15.9267 42.966 15.74C43.2193 15.54 43.346 15.3 43.346 15.02C43.346 14.6867 43.186 14.4067 42.866 14.18C42.5593 13.94 42.1727 13.72 41.706 13.52C41.2393 13.3067 40.7327 13.0867 40.186 12.86C39.6393 12.62 39.1327 12.3267 38.666 11.98C38.1993 11.6333 37.806 11.2133 37.486 10.72C37.1793 10.2133 37.026 9.58667 37.026 8.84C37.026 8.18667 37.1527 7.59333 37.406 7.06C37.6727 6.51333 38.0327 6.04667 38.486 5.66C38.9393 5.27333 39.4793 4.98 40.106 4.78C40.7327 4.56667 41.406 4.46 42.126 4.46C42.966 4.46 43.7327 4.58 44.426 4.82C45.1193 5.04667 45.6393 5.28 45.986 5.52C46.2793 5.73333 46.446 5.96667 46.486 6.22C46.526 6.46 46.4727 6.72667 46.326 7.02L45.846 7.96C45.646 8.34667 45.4127 8.54667 45.146 8.56C44.8927 8.56 44.626 8.48667 44.346 8.34C44.0127 8.18 43.666 8.03333 43.306 7.9C42.9593 7.75333 42.5527 7.68 42.086 7.68C41.526 7.68 41.126 7.78 40.886 7.98C40.646 8.16667 40.526 8.4 40.526 8.68C40.526 9.02667 40.6793 9.31333 40.986 9.54C41.306 9.76667 41.6993 9.98 42.166 10.18C42.6327 10.38 43.1393 10.5933 43.686 10.82C44.2327 11.0333 44.7393 11.3133 45.206 11.66C45.6727 11.9933 46.0593 12.4133 46.366 12.92C46.686 13.4133 46.846 14.0333 46.846 14.78C46.846 15.38 46.7327 15.9533 46.506 16.5C46.2927 17.0333 45.9727 17.5067 45.546 17.92C45.1193 18.32 44.5927 18.64 43.966 18.88C43.3393 19.12 42.626 19.24 41.826 19.24C41.3193 19.24 40.8327 19.1933 40.366 19.1C39.9127 19.0067 39.486 18.8933 39.086 18.76C38.6993 18.6133 38.346 18.46 38.026 18.3C37.7193 18.1267 37.4727 17.9667 37.286 17.82ZM48.8937 5.8C48.8937 5.06667 49.2603 4.7 49.9937 4.7H51.2937C52.027 4.7 52.3937 5.06667 52.3937 5.8V16H57.1337C57.867 16 58.2337 16.3667 58.2337 17.1V17.9C58.2337 18.6333 57.867 19 57.1337 19H49.9937C49.2603 19 48.8937 18.6333 48.8937 17.9V5.8ZM62.6949 5.6C62.8949 5 63.3083 4.7 63.9349 4.7H65.7349C66.3616 4.7 66.7749 5 66.9749 5.6L71.1149 17.74C71.2483 18.1267 71.2283 18.4333 71.0549 18.66C70.8949 18.8867 70.6149 19 70.2149 19H68.8949C68.2683 19 67.8549 18.6933 67.6549 18.08L67.0549 16H62.5949L61.9949 18.08C61.8216 18.6933 61.4149 19 60.7749 19H59.4549C59.0549 19 58.7683 18.8867 58.5949 18.66C58.4349 18.4333 58.4216 18.1267 58.5549 17.74L62.6949 5.6ZM66.2349 13.2L65.4349 10.42C65.3683 10.1933 65.3016 9.94 65.2349 9.66C65.1816 9.38 65.1216 9.11333 65.0549 8.86C64.9883 8.56667 64.9216 8.26667 64.8549 7.96H64.8149C64.7483 8.26667 64.6816 8.56667 64.6149 8.86C64.5483 9.11333 64.4816 9.38 64.4149 9.66C64.3616 9.94 64.3016 10.1933 64.2349 10.42L63.4149 13.2H66.2349ZM72.7609 5.8C72.7609 5.06667 73.1275 4.7 73.8609 4.7H75.4209C76.0209 4.7 76.4609 4.94667 76.7409 5.44L80.2609 11.38C80.4075 11.62 80.5475 11.88 80.6809 12.16C80.8142 12.44 80.9409 12.7067 81.0609 12.96C81.1942 13.2533 81.3275 13.54 81.4609 13.82H81.5009C81.4742 13.5267 81.4475 13.2333 81.4209 12.94C81.3942 12.6867 81.3742 12.42 81.3609 12.14C81.3475 11.86 81.3409 11.6067 81.3409 11.38V5.8C81.3409 5.06667 81.7075 4.7 82.4409 4.7H83.7409C84.4742 4.7 84.8409 5.06667 84.8409 5.8V17.9C84.8409 18.6333 84.4742 19 83.7409 19H82.1809C81.5942 19 81.1609 18.7533 80.8809 18.26L77.3409 12.34C77.1942 12.1133 77.0475 11.86 76.9009 11.58C76.7542 11.2867 76.6275 11.0133 76.5209 10.76C76.3742 10.4667 76.2475 10.18 76.1409 9.9H76.1009C76.1275 10.1933 76.1542 10.4867 76.1809 10.78C76.2075 11.0333 76.2275 11.3 76.2409 11.58C76.2542 11.86 76.2609 12.1133 76.2609 12.34V17.9C76.2609 18.6333 75.8942 19 75.1609 19H73.8609C73.1275 19 72.7609 18.6333 72.7609 17.9V5.8ZM87.6046 5.8C87.6046 5.06667 87.9713 4.7 88.7046 4.7H92.6846C93.8046 4.7 94.8179 4.86 95.7246 5.18C96.6446 5.5 97.4246 5.96667 98.0646 6.58C98.7046 7.18 99.1979 7.92667 99.5446 8.82C99.8913 9.7 100.065 10.7 100.065 11.82C100.065 12.94 99.8913 13.9467 99.5446 14.84C99.1979 15.7333 98.7046 16.4867 98.0646 17.1C97.4246 17.7133 96.6446 18.1867 95.7246 18.52C94.8179 18.84 93.8046 19 92.6846 19H88.7046C87.9713 19 87.6046 18.6333 87.6046 17.9V5.8ZM92.5446 16C93.7579 16 94.7113 15.6467 95.4046 14.94C96.0979 14.2333 96.4446 13.1933 96.4446 11.82C96.4446 10.4467 96.0913 9.42 95.3846 8.74C94.6779 8.04667 93.7313 7.7 92.5446 7.7H91.1046V16H92.5446ZM107.116 5.8C107.116 5.06667 107.483 4.7 108.216 4.7H109.516C110.25 4.7 110.616 5.06667 110.616 5.8V16H115.356C116.09 16 116.456 16.3667 116.456 17.1V17.9C116.456 18.6333 116.09 19 115.356 19H108.216C107.483 19 107.116 18.6333 107.116 17.9V5.8ZM117.426 5.8C117.426 5.06667 117.792 4.7 118.526 4.7H119.826C120.559 4.7 120.926 5.06667 120.926 5.8V13.74C120.926 14.5 121.146 15.0733 121.586 15.46C122.039 15.8467 122.646 16.04 123.406 16.04C124.166 16.04 124.766 15.8467 125.206 15.46C125.659 15.0733 125.886 14.5 125.886 13.74V5.8C125.886 5.06667 126.252 4.7 126.986 4.7H128.286C129.019 4.7 129.386 5.06667 129.386 5.8V13.74C129.386 14.54 129.239 15.28 128.946 15.96C128.666 16.6267 128.266 17.2067 127.746 17.7C127.226 18.18 126.599 18.56 125.866 18.84C125.132 19.1067 124.319 19.24 123.426 19.24C122.519 19.24 121.692 19.1067 120.946 18.84C120.212 18.56 119.586 18.18 119.066 17.7C118.546 17.2067 118.139 16.6267 117.846 15.96C117.566 15.28 117.426 14.54 117.426 13.74V5.8ZM134.802 11.9L131.242 6.02C131.016 5.63333 130.969 5.32 131.102 5.08C131.249 4.82667 131.542 4.7 131.982 4.7H133.542C134.116 4.7 134.549 4.96 134.842 5.48L135.982 7.64C136.102 7.86667 136.216 8.09333 136.322 8.32C136.429 8.53333 136.522 8.72667 136.602 8.9C136.696 9.1 136.782 9.29333 136.862 9.48H136.902C136.982 9.29333 137.069 9.1 137.162 8.9C137.242 8.72667 137.329 8.53333 137.422 8.32C137.529 8.09333 137.649 7.86667 137.782 7.64L138.942 5.48C139.236 4.96 139.669 4.7 140.242 4.7H141.802C142.242 4.7 142.529 4.82667 142.662 5.08C142.809 5.32 142.769 5.63333 142.542 6.02L138.962 11.9L142.502 17.68C142.742 18.0667 142.789 18.3867 142.642 18.64C142.509 18.88 142.216 19 141.762 19H140.302C139.729 19 139.296 18.74 139.002 18.22L137.782 16C137.649 15.7733 137.529 15.56 137.422 15.36C137.329 15.1467 137.242 14.9533 137.162 14.78C137.069 14.58 136.982 14.3933 136.902 14.22H136.862C136.782 14.3933 136.696 14.58 136.602 14.78C136.522 14.9533 136.429 15.1467 136.322 15.36C136.216 15.56 136.102 15.7733 135.982 16L134.762 18.22C134.469 18.74 134.036 19 133.462 19H132.022C131.569 19 131.269 18.88 131.122 18.64C130.989 18.3867 131.036 18.0667 131.262 17.68L134.802 11.9ZM144.379 5.8C144.379 5.06667 144.745 4.7 145.479 4.7H146.779C147.512 4.7 147.879 5.06667 147.879 5.8V13.74C147.879 14.5 148.099 15.0733 148.539 15.46C148.992 15.8467 149.599 16.04 150.359 16.04C151.119 16.04 151.719 15.8467 152.159 15.46C152.612 15.0733 152.839 14.5 152.839 13.74V5.8C152.839 5.06667 153.205 4.7 153.939 4.7H155.239C155.972 4.7 156.339 5.06667 156.339 5.8V13.74C156.339 14.54 156.192 15.28 155.899 15.96C155.619 16.6267 155.219 17.2067 154.699 17.7C154.179 18.18 153.552 18.56 152.819 18.84C152.085 19.1067 151.272 19.24 150.379 19.24C149.472 19.24 148.645 19.1067 147.899 18.84C147.165 18.56 146.539 18.18 146.019 17.7C145.499 17.2067 145.092 16.6267 144.799 15.96C144.519 15.28 144.379 14.54 144.379 13.74V5.8ZM158.952 5.8C158.952 5.06667 159.319 4.7 160.052 4.7H163.932C164.666 4.7 165.232 4.72667 165.632 4.78C166.046 4.83333 166.406 4.92 166.712 5.04C167.526 5.34667 168.166 5.86 168.632 6.58C169.112 7.28667 169.352 8.16 169.352 9.2C169.352 9.58667 169.306 9.97333 169.212 10.36C169.132 10.7333 168.999 11.1 168.812 11.46C168.639 11.8067 168.419 12.1267 168.152 12.42C167.886 12.7 167.572 12.9267 167.212 13.1V13.14C167.252 13.1933 167.299 13.26 167.352 13.34C167.406 13.4067 167.459 13.5 167.512 13.62C167.579 13.7267 167.659 13.8533 167.752 14L169.792 17.68C170.019 18.0667 170.052 18.3867 169.892 18.64C169.746 18.88 169.459 19 169.032 19H167.512C166.939 19 166.506 18.74 166.212 18.22L164.092 14.18H162.452V17.9C162.452 18.6333 162.086 19 161.352 19H160.052C159.319 19 158.952 18.6333 158.952 17.9V5.8ZM163.972 11.18C164.532 11.18 164.972 11.0333 165.292 10.74C165.626 10.4333 165.792 9.99333 165.792 9.42C165.792 9.06 165.732 8.75333 165.612 8.5C165.506 8.23333 165.286 8.03333 164.952 7.9C164.646 7.76667 164.206 7.7 163.632 7.7H162.452V11.18H163.972ZM174.352 13.14L170.372 6.02C170.145 5.63333 170.105 5.32 170.252 5.08C170.412 4.82667 170.705 4.7 171.132 4.7H172.712C173.312 4.7 173.738 4.97333 173.992 5.52L175.232 8.14C175.338 8.39333 175.445 8.64 175.552 8.88C175.658 9.12 175.752 9.34 175.832 9.54C175.925 9.78 176.012 10 176.092 10.2H176.132C176.212 10 176.298 9.78 176.392 9.54C176.472 9.34 176.558 9.12 176.652 8.88C176.758 8.64 176.872 8.39333 176.992 8.14L178.212 5.52C178.465 4.97333 178.892 4.7 179.492 4.7H181.072C181.498 4.7 181.785 4.82667 181.932 5.08C182.092 5.32 182.058 5.63333 181.832 6.02L177.852 13.14V17.9C177.852 18.6333 177.485 19 176.752 19H175.452C174.718 19 174.352 18.6333 174.352 17.9V13.14Z" fill="white"/>
<path d="M47.787 25.08C47.787 24.64 48.007 24.42 48.447 24.42H51.351C51.767 24.42 52.147 24.492 52.491 24.636C52.835 24.78 53.127 24.984 53.367 25.248C53.615 25.512 53.807 25.824 53.943 26.184C54.079 26.544 54.147 26.94 54.147 27.372C54.147 27.804 54.079 28.204 53.943 28.572C53.807 28.932 53.615 29.244 53.367 29.508C53.127 29.772 52.835 29.98 52.491 30.132C52.147 30.276 51.767 30.348 51.351 30.348H49.887V32.34C49.887 32.78 49.667 33 49.227 33H48.447C48.007 33 47.787 32.78 47.787 32.34V25.08ZM50.919 28.548C51.287 28.548 51.559 28.44 51.735 28.224C51.919 28 52.011 27.716 52.011 27.372C52.011 27.028 51.923 26.752 51.747 26.544C51.571 26.328 51.307 26.22 50.955 26.22H49.887V28.548H50.919ZM55.1815 25.08C55.1815 24.64 55.4015 24.42 55.8415 24.42H58.1695C58.6095 24.42 58.9495 24.436 59.1895 24.468C59.4375 24.5 59.6535 24.552 59.8375 24.624C60.3255 24.808 60.7095 25.116 60.9895 25.548C61.2775 25.972 61.4215 26.496 61.4215 27.12C61.4215 27.352 61.3935 27.584 61.3375 27.816C61.2895 28.04 61.2095 28.26 61.0975 28.476C60.9935 28.684 60.8615 28.876 60.7015 29.052C60.5415 29.22 60.3535 29.356 60.1375 29.46V29.484C60.1615 29.516 60.1895 29.556 60.2215 29.604C60.2535 29.644 60.2855 29.7 60.3175 29.772C60.3575 29.836 60.4055 29.912 60.4615 30L61.6855 32.208C61.8215 32.44 61.8415 32.632 61.7455 32.784C61.6575 32.928 61.4855 33 61.2295 33H60.3175C59.9735 33 59.7135 32.844 59.5375 32.532L58.2655 30.108H57.2815V32.34C57.2815 32.78 57.0615 33 56.6215 33H55.8415C55.4015 33 55.1815 32.78 55.1815 32.34V25.08ZM58.1935 28.308C58.5295 28.308 58.7935 28.22 58.9855 28.044C59.1855 27.86 59.2855 27.596 59.2855 27.252C59.2855 27.036 59.2495 26.852 59.1775 26.7C59.1135 26.54 58.9815 26.42 58.7815 26.34C58.5975 26.26 58.3335 26.22 57.9895 26.22H57.2815V28.308H58.1935ZM62.3313 28.656C62.3313 28.04 62.4393 27.468 62.6553 26.94C62.8713 26.404 63.1753 25.94 63.5673 25.548C63.9673 25.148 64.4433 24.836 64.9953 24.612C65.5473 24.388 66.1553 24.276 66.8193 24.276C67.4833 24.276 68.0913 24.388 68.6433 24.612C69.1953 24.836 69.6673 25.148 70.0593 25.548C70.4593 25.94 70.7673 26.404 70.9833 26.94C71.1993 27.468 71.3073 28.04 71.3073 28.656C71.3073 29.288 71.1993 29.876 70.9833 30.42C70.7673 30.964 70.4593 31.44 70.0593 31.848C69.6673 32.248 69.1953 32.564 68.6433 32.796C68.0913 33.028 67.4833 33.144 66.8193 33.144C66.1553 33.144 65.5473 33.028 64.9953 32.796C64.4433 32.564 63.9673 32.248 63.5673 31.848C63.1753 31.44 62.8713 30.964 62.6553 30.42C62.4393 29.876 62.3313 29.288 62.3313 28.656ZM64.5033 28.656C64.5033 29.024 64.5593 29.364 64.6713 29.676C64.7913 29.988 64.9513 30.26 65.1513 30.492C65.3593 30.716 65.6033 30.896 65.8833 31.032C66.1713 31.16 66.4833 31.224 66.8193 31.224C67.1553 31.224 67.4633 31.16 67.7433 31.032C68.0313 30.896 68.2753 30.716 68.4753 30.492C68.6833 30.26 68.8433 29.988 68.9553 29.676C69.0753 29.364 69.1353 29.024 69.1353 28.656C69.1353 28.304 69.0753 27.98 68.9553 27.684C68.8433 27.38 68.6833 27.12 68.4753 26.904C68.2753 26.68 68.0313 26.508 67.7433 26.388C67.4633 26.26 67.1553 26.196 66.8193 26.196C66.4833 26.196 66.1713 26.26 65.8833 26.388C65.6033 26.508 65.3593 26.68 65.1513 26.904C64.9513 27.12 64.7913 27.38 64.6713 27.684C64.5593 27.98 64.5033 28.304 64.5033 28.656ZM72.5135 25.08C72.5135 24.64 72.7335 24.42 73.1735 24.42H76.0775C76.4935 24.42 76.8735 24.492 77.2175 24.636C77.5615 24.78 77.8535 24.984 78.0935 25.248C78.3415 25.512 78.5335 25.824 78.6695 26.184C78.8055 26.544 78.8735 26.94 78.8735 27.372C78.8735 27.804 78.8055 28.204 78.6695 28.572C78.5335 28.932 78.3415 29.244 78.0935 29.508C77.8535 29.772 77.5615 29.98 77.2175 30.132C76.8735 30.276 76.4935 30.348 76.0775 30.348H74.6135V32.34C74.6135 32.78 74.3935 33 73.9535 33H73.1735C72.7335 33 72.5135 32.78 72.5135 32.34V25.08ZM75.6455 28.548C76.0135 28.548 76.2855 28.44 76.4615 28.224C76.6455 28 76.7375 27.716 76.7375 27.372C76.7375 27.028 76.6495 26.752 76.4735 26.544C76.2975 26.328 76.0335 26.22 75.6815 26.22H74.6135V28.548H75.6455ZM79.9081 25.08C79.9081 24.64 80.1281 24.42 80.5681 24.42H84.6241C85.0641 24.42 85.2841 24.64 85.2841 25.08V25.56C85.2841 26 85.0641 26.22 84.6241 26.22H82.0081V27.78H83.9641C84.4041 27.78 84.6241 28 84.6241 28.44V28.92C84.6241 29.36 84.4041 29.58 83.9641 29.58H82.0081V31.2H84.7921C85.2321 31.2 85.4521 31.42 85.4521 31.86V32.34C85.4521 32.78 85.2321 33 84.7921 33H80.5681C80.1281 33 79.9081 32.78 79.9081 32.34V25.08ZM86.6229 25.08C86.6229 24.64 86.8429 24.42 87.2829 24.42H89.6109C90.0509 24.42 90.3909 24.436 90.6309 24.468C90.8789 24.5 91.0949 24.552 91.2789 24.624C91.7669 24.808 92.1509 25.116 92.4309 25.548C92.7189 25.972 92.8629 26.496 92.8629 27.12C92.8629 27.352 92.8349 27.584 92.7789 27.816C92.7309 28.04 92.6509 28.26 92.5389 28.476C92.4349 28.684 92.3029 28.876 92.1429 29.052C91.9829 29.22 91.7949 29.356 91.5789 29.46V29.484C91.6029 29.516 91.6309 29.556 91.6629 29.604C91.6949 29.644 91.7269 29.7 91.7589 29.772C91.7989 29.836 91.8469 29.912 91.9029 30L93.1269 32.208C93.2629 32.44 93.2829 32.632 93.1869 32.784C93.0989 32.928 92.9269 33 92.6709 33H91.7589C91.4149 33 91.1549 32.844 90.9789 32.532L89.7069 30.108H88.7229V32.34C88.7229 32.78 88.5029 33 88.0629 33H87.2829C86.8429 33 86.6229 32.78 86.6229 32.34V25.08ZM89.6349 28.308C89.9709 28.308 90.2349 28.22 90.4269 28.044C90.6269 27.86 90.7269 27.596 90.7269 27.252C90.7269 27.036 90.6909 26.852 90.6189 26.7C90.5549 26.54 90.4229 26.42 90.2229 26.34C90.0389 26.26 89.7749 26.22 89.4309 26.22H88.7229V28.308H89.6349ZM95.9826 26.22H94.0386C93.5986 26.22 93.3786 26 93.3786 25.56V25.08C93.3786 24.64 93.5986 24.42 94.0386 24.42H100.027C100.467 24.42 100.687 24.64 100.687 25.08V25.56C100.687 26 100.467 26.22 100.027 26.22H98.0826V32.34C98.0826 32.78 97.8626 33 97.4226 33H96.6426C96.2026 33 95.9826 32.78 95.9826 32.34V26.22ZM103.316 29.484L100.928 25.212C100.792 24.98 100.768 24.792 100.856 24.648C100.952 24.496 101.128 24.42 101.384 24.42H102.332C102.692 24.42 102.948 24.584 103.1 24.912L103.844 26.484C103.908 26.636 103.972 26.784 104.036 26.928C104.1 27.072 104.156 27.204 104.204 27.324C104.26 27.468 104.312 27.6 104.36 27.72H104.384C104.432 27.6 104.484 27.468 104.54 27.324C104.588 27.204 104.64 27.072 104.696 26.928C104.76 26.784 104.828 26.636 104.9 26.484L105.632 24.912C105.784 24.584 106.04 24.42 106.4 24.42H107.348C107.604 24.42 107.776 24.496 107.864 24.648C107.96 24.792 107.94 24.98 107.804 25.212L105.416 29.484V32.34C105.416 32.78 105.196 33 104.756 33H103.976C103.536 33 103.316 32.78 103.316 32.34V29.484ZM111.795 25.08C111.795 24.64 112.015 24.42 112.455 24.42H113.235C113.675 24.42 113.895 24.64 113.895 25.08V31.2H116.739C117.179 31.2 117.399 31.42 117.399 31.86V32.34C117.399 32.78 117.179 33 116.739 33H112.455C112.015 33 111.795 32.78 111.795 32.34V25.08ZM118.264 25.08C118.264 24.64 118.484 24.42 118.924 24.42H119.704C120.144 24.42 120.364 24.64 120.364 25.08V32.34C120.364 32.78 120.144 33 119.704 33H118.924C118.484 33 118.264 32.78 118.264 32.34V25.08ZM121.869 32.292C121.805 32.244 121.749 32.192 121.701 32.136C121.653 32.072 121.617 32.004 121.593 31.932C121.577 31.852 121.577 31.768 121.593 31.68C121.617 31.592 121.669 31.492 121.749 31.38L122.121 30.84C122.241 30.664 122.373 30.568 122.517 30.552C122.661 30.528 122.833 30.572 123.033 30.684C123.105 30.724 123.189 30.772 123.285 30.828C123.389 30.884 123.505 30.944 123.633 31.008C123.769 31.064 123.917 31.112 124.077 31.152C124.237 31.192 124.409 31.212 124.593 31.212C124.905 31.212 125.133 31.156 125.277 31.044C125.429 30.924 125.505 30.78 125.505 30.612C125.505 30.412 125.409 30.244 125.217 30.108C125.033 29.964 124.801 29.832 124.521 29.712C124.241 29.584 123.937 29.452 123.609 29.316C123.281 29.172 122.977 28.996 122.697 28.788C122.417 28.58 122.181 28.328 121.989 28.032C121.805 27.728 121.713 27.352 121.713 26.904C121.713 26.512 121.789 26.156 121.941 25.836C122.101 25.508 122.317 25.228 122.589 24.996C122.861 24.764 123.185 24.588 123.561 24.468C123.937 24.34 124.341 24.276 124.773 24.276C125.277 24.276 125.737 24.348 126.153 24.492C126.569 24.628 126.881 24.768 127.089 24.912C127.265 25.04 127.365 25.18 127.389 25.332C127.413 25.476 127.381 25.636 127.293 25.812L127.005 26.376C126.885 26.608 126.745 26.728 126.585 26.736C126.433 26.736 126.273 26.692 126.105 26.604C125.905 26.508 125.697 26.42 125.481 26.34C125.273 26.252 125.029 26.208 124.749 26.208C124.413 26.208 124.173 26.268 124.029 26.388C123.885 26.5 123.813 26.64 123.813 26.808C123.813 27.016 123.905 27.188 124.089 27.324C124.281 27.46 124.517 27.588 124.797 27.708C125.077 27.828 125.381 27.956 125.709 28.092C126.037 28.22 126.341 28.388 126.621 28.596C126.901 28.796 127.133 29.048 127.317 29.352C127.509 29.648 127.605 30.02 127.605 30.468C127.605 30.828 127.537 31.172 127.401 31.5C127.273 31.82 127.081 32.104 126.825 32.352C126.569 32.592 126.253 32.784 125.877 32.928C125.501 33.072 125.073 33.144 124.593 33.144C124.289 33.144 123.997 33.116 123.717 33.06C123.445 33.004 123.189 32.936 122.949 32.856C122.717 32.768 122.505 32.676 122.313 32.58C122.129 32.476 121.981 32.38 121.869 32.292ZM130.682 26.22H128.738C128.298 26.22 128.078 26 128.078 25.56V25.08C128.078 24.64 128.298 24.42 128.738 24.42H134.726C135.166 24.42 135.386 24.64 135.386 25.08V25.56C135.386 26 135.166 26.22 134.726 26.22H132.782V32.34C132.782 32.78 132.562 33 132.122 33H131.342C130.902 33 130.682 32.78 130.682 32.34V26.22ZM136.287 25.08C136.287 24.64 136.507 24.42 136.947 24.42H137.727C138.167 24.42 138.387 24.64 138.387 25.08V32.34C138.387 32.78 138.167 33 137.727 33H136.947C136.507 33 136.287 32.78 136.287 32.34V25.08ZM140.049 25.08C140.049 24.64 140.269 24.42 140.709 24.42H141.645C142.005 24.42 142.269 24.568 142.437 24.864L144.549 28.428C144.637 28.572 144.721 28.728 144.801 28.896C144.881 29.064 144.957 29.224 145.029 29.376C145.109 29.552 145.189 29.724 145.269 29.892H145.293C145.277 29.716 145.261 29.54 145.245 29.364C145.229 29.212 145.217 29.052 145.209 28.884C145.201 28.716 145.197 28.564 145.197 28.428V25.08C145.197 24.64 145.417 24.42 145.857 24.42H146.637C147.077 24.42 147.297 24.64 147.297 25.08V32.34C147.297 32.78 147.077 33 146.637 33H145.701C145.349 33 145.089 32.852 144.921 32.556L142.797 29.004C142.709 28.868 142.621 28.716 142.533 28.548C142.445 28.372 142.369 28.208 142.305 28.056C142.217 27.88 142.141 27.708 142.077 27.54H142.053C142.069 27.716 142.085 27.892 142.101 28.068C142.117 28.22 142.129 28.38 142.137 28.548C142.145 28.716 142.149 28.868 142.149 29.004V32.34C142.149 32.78 141.929 33 141.489 33H140.709C140.269 33 140.049 32.78 140.049 32.34V25.08ZM148.511 28.764C148.511 28.108 148.623 27.508 148.847 26.964C149.071 26.412 149.383 25.94 149.783 25.548C150.183 25.148 150.659 24.836 151.211 24.612C151.763 24.388 152.367 24.276 153.023 24.276C153.367 24.276 153.687 24.304 153.983 24.36C154.287 24.416 154.559 24.484 154.799 24.564C155.039 24.636 155.243 24.716 155.411 24.804C155.587 24.892 155.719 24.968 155.807 25.032C155.991 25.168 156.091 25.308 156.107 25.452C156.131 25.596 156.087 25.76 155.975 25.944L155.663 26.436C155.551 26.62 155.419 26.724 155.267 26.748C155.123 26.764 154.951 26.72 154.751 26.616C154.551 26.512 154.327 26.416 154.079 26.328C153.839 26.24 153.531 26.196 153.155 26.196C152.723 26.196 152.351 26.264 152.039 26.4C151.735 26.528 151.479 26.708 151.271 26.94C151.071 27.164 150.923 27.424 150.827 27.72C150.731 28.016 150.683 28.324 150.683 28.644C150.683 29.044 150.747 29.404 150.875 29.724C151.011 30.036 151.187 30.304 151.403 30.528C151.627 30.752 151.887 30.924 152.183 31.044C152.479 31.164 152.791 31.224 153.119 31.224C153.423 31.224 153.687 31.188 153.911 31.116C154.135 31.044 154.319 30.964 154.463 30.876C154.631 30.78 154.771 30.664 154.883 30.528V29.94H154.331C153.891 29.94 153.671 29.72 153.671 29.28V28.812C153.671 28.372 153.891 28.152 154.331 28.152H156.083C156.523 28.152 156.743 28.372 156.743 28.812V32.34C156.743 32.78 156.523 33 156.083 33H155.687C155.471 33 155.307 32.952 155.195 32.856C155.083 32.752 155.027 32.628 155.027 32.484V32.46V32.376C155.027 32.36 155.031 32.348 155.039 32.34H155.015C154.863 32.492 154.675 32.628 154.451 32.748C154.259 32.852 154.019 32.944 153.731 33.024C153.451 33.104 153.119 33.144 152.735 33.144C152.183 33.144 151.651 33.044 151.139 32.844C150.635 32.636 150.187 32.344 149.795 31.968C149.403 31.592 149.091 31.132 148.859 30.588C148.627 30.044 148.511 29.436 148.511 28.764ZM157.904 32.292C157.84 32.244 157.784 32.192 157.736 32.136C157.688 32.072 157.652 32.004 157.628 31.932C157.612 31.852 157.612 31.768 157.628 31.68C157.652 31.592 157.704 31.492 157.784 31.38L158.156 30.84C158.276 30.664 158.408 30.568 158.552 30.552C158.696 30.528 158.868 30.572 159.068 30.684C159.14 30.724 159.224 30.772 159.32 30.828C159.424 30.884 159.54 30.944 159.668 31.008C159.804 31.064 159.952 31.112 160.112 31.152C160.272 31.192 160.444 31.212 160.628 31.212C160.94 31.212 161.168 31.156 161.312 31.044C161.464 30.924 161.54 30.78 161.54 30.612C161.54 30.412 161.444 30.244 161.252 30.108C161.068 29.964 160.836 29.832 160.556 29.712C160.276 29.584 159.972 29.452 159.644 29.316C159.316 29.172 159.012 28.996 158.732 28.788C158.452 28.58 158.216 28.328 158.024 28.032C157.84 27.728 157.748 27.352 157.748 26.904C157.748 26.512 157.824 26.156 157.976 25.836C158.136 25.508 158.352 25.228 158.624 24.996C158.896 24.764 159.22 24.588 159.596 24.468C159.972 24.34 160.376 24.276 160.808 24.276C161.312 24.276 161.772 24.348 162.188 24.492C162.604 24.628 162.916 24.768 163.124 24.912C163.3 25.04 163.4 25.18 163.424 25.332C163.448 25.476 163.416 25.636 163.328 25.812L163.04 26.376C162.92 26.608 162.78 26.728 162.62 26.736C162.468 26.736 162.308 26.692 162.14 26.604C161.94 26.508 161.732 26.42 161.516 26.34C161.308 26.252 161.064 26.208 160.784 26.208C160.448 26.208 160.208 26.268 160.064 26.388C159.92 26.5 159.848 26.64 159.848 26.808C159.848 27.016 159.94 27.188 160.124 27.324C160.316 27.46 160.552 27.588 160.832 27.708C161.112 27.828 161.416 27.956 161.744 28.092C162.072 28.22 162.376 28.388 162.656 28.596C162.936 28.796 163.168 29.048 163.352 29.352C163.544 29.648 163.64 30.02 163.64 30.468C163.64 30.828 163.572 31.172 163.436 31.5C163.308 31.82 163.116 32.104 162.86 32.352C162.604 32.592 162.288 32.784 161.912 32.928C161.536 33.072 161.108 33.144 160.628 33.144C160.324 33.144 160.032 33.116 159.752 33.06C159.48 33.004 159.224 32.936 158.984 32.856C158.752 32.768 158.54 32.676 158.348 32.58C158.164 32.476 158.016 32.38 157.904 32.292Z" fill="white"/>
<path d="M169 29H185" stroke="#FDEEA5" stroke-width="3" stroke-linecap="round"/>
<path d="M26 29H42" stroke="#FDEEA5" stroke-width="3" stroke-linecap="round"/>
</svg>
