<svg width="155" height="95" viewBox="0 0 155 95" fill="none" xmlns="http://www.w3.org/2000/svg">
<rect width="155" height="39" rx="19.5" fill="#FF2222"/>
<path d="M22.568 26.348C22.4187 26.236 22.288 26.1147 22.176 25.984C22.064 25.8347 21.98 25.676 21.924 25.508C21.8867 25.3213 21.8867 25.1253 21.924 24.92C21.98 24.7147 22.1013 24.4813 22.288 24.22L23.156 22.96C23.436 22.5493 23.744 22.3253 24.08 22.288C24.416 22.232 24.8173 22.3347 25.284 22.596C25.452 22.6893 25.648 22.8013 25.872 22.932C26.1147 23.0627 26.3853 23.2027 26.684 23.352C27.0013 23.4827 27.3467 23.5947 27.72 23.688C28.0933 23.7813 28.4947 23.828 28.924 23.828C29.652 23.828 30.184 23.6973 30.52 23.436C30.8747 23.156 31.052 22.82 31.052 22.428C31.052 21.9613 30.828 21.5693 30.38 21.252C29.9507 20.916 29.4093 20.608 28.756 20.328C28.1027 20.0293 27.3933 19.7213 26.628 19.404C25.8627 19.068 25.1533 18.6573 24.5 18.172C23.8467 17.6867 23.296 17.0987 22.848 16.408C22.4187 15.6987 22.204 14.8213 22.204 13.776C22.204 12.8613 22.3813 12.0307 22.736 11.284C23.1093 10.5187 23.6133 9.86533 24.248 9.324C24.8827 8.78267 25.6387 8.372 26.516 8.092C27.3933 7.79333 28.336 7.644 29.344 7.644C30.52 7.644 31.5933 7.812 32.564 8.148C33.5347 8.46533 34.2627 8.792 34.748 9.128C35.1587 9.42667 35.392 9.75333 35.448 10.108C35.504 10.444 35.4293 10.8173 35.224 11.228L34.552 12.544C34.272 13.0853 33.9453 13.3653 33.572 13.384C33.2173 13.384 32.844 13.2813 32.452 13.076C31.9853 12.852 31.5 12.6467 30.996 12.46C30.5107 12.2547 29.9413 12.152 29.288 12.152C28.504 12.152 27.944 12.292 27.608 12.572C27.272 12.8333 27.104 13.16 27.104 13.552C27.104 14.0373 27.3187 14.4387 27.748 14.756C28.196 15.0733 28.7467 15.372 29.4 15.652C30.0533 15.932 30.7627 16.2307 31.528 16.548C32.2933 16.8467 33.0027 17.2387 33.656 17.724C34.3093 18.1907 34.8507 18.7787 35.28 19.488C35.728 20.1787 35.952 21.0467 35.952 22.092C35.952 22.932 35.7933 23.7347 35.476 24.5C35.1773 25.2467 34.7293 25.9093 34.132 26.488C33.5347 27.048 32.7973 27.496 31.92 27.832C31.0427 28.168 30.044 28.336 28.924 28.336C28.2147 28.336 27.5333 28.2707 26.88 28.14C26.2453 28.0093 25.648 27.8507 25.088 27.664C24.5467 27.4587 24.052 27.244 23.604 27.02C23.1747 26.7773 22.8293 26.5533 22.568 26.348ZM38.8187 9.52C38.8187 8.49333 39.3321 7.98 40.3587 7.98H49.8227C50.8494 7.98 51.3627 8.49333 51.3627 9.52V10.64C51.3627 11.6667 50.8494 12.18 49.8227 12.18H43.7187V15.82H48.2827C49.3094 15.82 49.8227 16.3333 49.8227 17.36V18.48C49.8227 19.5067 49.3094 20.02 48.2827 20.02H43.7187V23.8H50.2147C51.2414 23.8 51.7547 24.3133 51.7547 25.34V26.46C51.7547 27.4867 51.2414 28 50.2147 28H40.3587C39.3321 28 38.8187 27.4867 38.8187 26.46V9.52ZM58.7147 9.24C58.9947 8.4 59.5734 7.98 60.4507 7.98H62.9707C63.848 7.98 64.4267 8.4 64.7067 9.24L70.5027 26.236C70.6894 26.7773 70.6614 27.2067 70.4187 27.524C70.1947 27.8413 69.8027 28 69.2427 28H67.3947C66.5174 28 65.9387 27.5707 65.6587 26.712L64.8187 23.8H58.5747L57.7347 26.712C57.492 27.5707 56.9227 28 56.0267 28H54.1787C53.6187 28 53.2174 27.8413 52.9747 27.524C52.7507 27.2067 52.732 26.7773 52.9187 26.236L58.7147 9.24ZM63.6707 19.88L62.5507 15.988C62.4574 15.6707 62.364 15.316 62.2707 14.924C62.196 14.532 62.112 14.1587 62.0187 13.804C61.9254 13.3933 61.832 12.9733 61.7387 12.544H61.6827C61.5894 12.9733 61.496 13.3933 61.4027 13.804C61.3094 14.1587 61.216 14.532 61.1227 14.924C61.048 15.316 60.964 15.6707 60.8707 15.988L59.7227 19.88H63.6707ZM72.807 9.52C72.807 8.49333 73.3203 7.98 74.347 7.98H79.779C80.8057 7.98 81.599 8.01733 82.159 8.092C82.7377 8.16667 83.2417 8.288 83.671 8.456C84.8097 8.88533 85.7057 9.604 86.359 10.612C87.031 11.6013 87.367 12.824 87.367 14.28C87.367 14.8213 87.3017 15.3627 87.171 15.904C87.059 16.4267 86.8723 16.94 86.611 17.444C86.3683 17.9293 86.0603 18.3773 85.687 18.788C85.3137 19.18 84.875 19.4973 84.371 19.74V19.796C84.427 19.8707 84.4923 19.964 84.567 20.076C84.6417 20.1693 84.7163 20.3 84.791 20.468C84.8843 20.6173 84.9963 20.7947 85.127 21L87.983 26.152C88.3003 26.6933 88.347 27.1413 88.123 27.496C87.9177 27.832 87.5163 28 86.919 28H84.791C83.9883 28 83.3817 27.636 82.971 26.908L80.003 21.252H77.707V26.46C77.707 27.4867 77.1937 28 76.167 28H74.347C73.3203 28 72.807 27.4867 72.807 26.46V9.52ZM79.835 17.052C80.619 17.052 81.235 16.8467 81.683 16.436C82.1497 16.0067 82.383 15.3907 82.383 14.588C82.383 14.084 82.299 13.6547 82.131 13.3C81.9817 12.9267 81.6737 12.6467 81.207 12.46C80.7777 12.2733 80.1617 12.18 79.359 12.18H77.707V17.052H79.835ZM89.4898 17.948C89.4898 16.492 89.7418 15.1387 90.2458 13.888C90.7684 12.6373 91.4871 11.5547 92.4018 10.64C93.3351 9.70667 94.4458 8.97867 95.7338 8.456C97.0218 7.91467 98.4404 7.644 99.9898 7.644C100.755 7.644 101.464 7.70933 102.118 7.84C102.771 7.952 103.368 8.10133 103.91 8.288C104.451 8.47467 104.927 8.68 105.338 8.904C105.748 9.128 106.103 9.34267 106.402 9.548C106.794 9.828 107.008 10.1547 107.046 10.528C107.102 10.8827 106.999 11.2653 106.738 11.676L106.038 12.824C105.776 13.2533 105.468 13.496 105.114 13.552C104.759 13.608 104.367 13.5053 103.938 13.244C103.471 12.9827 102.92 12.7307 102.286 12.488C101.651 12.2453 100.96 12.124 100.214 12.124C99.2058 12.124 98.3471 12.292 97.6378 12.628C96.9284 12.9453 96.3404 13.3747 95.8738 13.916C95.4258 14.4387 95.0898 15.0453 94.8658 15.736C94.6604 16.408 94.5578 17.108 94.5578 17.836C94.5578 18.5827 94.6698 19.32 94.8938 20.048C95.1178 20.7573 95.4631 21.4013 95.9298 21.98C96.3964 22.54 96.9844 22.9973 97.6938 23.352C98.4031 23.688 99.2431 23.856 100.214 23.856C101.054 23.856 101.819 23.7067 102.51 23.408C103.219 23.0907 103.816 22.764 104.302 22.428C105.179 21.812 105.898 21.9053 106.458 22.708L107.242 23.8C107.503 24.192 107.615 24.5747 107.578 24.948C107.559 25.3213 107.363 25.6573 106.99 25.956C106.672 26.1987 106.29 26.46 105.842 26.74C105.394 27.02 104.871 27.2813 104.274 27.524C103.695 27.748 103.042 27.9347 102.314 28.084C101.604 28.252 100.83 28.336 99.9898 28.336C98.3844 28.336 96.9284 28.0747 95.6218 27.552C94.3338 27.0293 93.2324 26.3013 92.3178 25.368C91.4031 24.4347 90.7031 23.3427 90.2178 22.092C89.7324 20.8227 89.4898 19.4413 89.4898 17.948ZM110.104 9.52C110.104 8.49333 110.617 7.98 111.644 7.98H113.464C114.491 7.98 115.004 8.49333 115.004 9.52V15.988H122.284V9.52C122.284 8.49333 122.797 7.98 123.824 7.98H125.644C126.671 7.98 127.184 8.49333 127.184 9.52V26.46C127.184 27.4867 126.671 28 125.644 28H123.824C122.797 28 122.284 27.4867 122.284 26.46V20.16H115.004V26.46C115.004 27.4867 114.491 28 113.464 28H111.644C110.617 28 110.104 27.4867 110.104 26.46V9.52Z" fill="white"/>
</svg>
