<svg width="25" height="25" viewBox="0 0 25 25" fill="none" xmlns="http://www.w3.org/2000/svg">
<path d="M10.4166 18.75C12.2656 18.7496 14.0612 18.1307 15.5177 16.9917L20.0969 21.5708L21.5698 20.0979L16.9906 15.5188C18.1302 14.0622 18.7495 12.2661 18.75 10.4167C18.75 5.82189 15.0114 2.08334 10.4166 2.08334C5.82186 2.08334 2.08331 5.82189 2.08331 10.4167C2.08331 15.0115 5.82186 18.75 10.4166 18.75ZM10.4166 4.16668C13.8635 4.16668 16.6666 6.9698 16.6666 10.4167C16.6666 13.8636 13.8635 16.6667 10.4166 16.6667C6.96977 16.6667 4.16665 13.8636 4.16665 10.4167C4.16665 6.9698 6.96977 4.16668 10.4166 4.16668Z" fill="#333333"/>
<path d="M11.8875 8.94375C12.2823 9.33958 12.5 9.8625 12.5 10.4167H14.5833C14.5842 9.86919 14.4766 9.32697 14.2667 8.82134C14.0568 8.3157 13.7488 7.85669 13.3604 7.47083C11.7833 5.89583 9.04894 5.89583 7.4729 7.47083L8.94373 8.94583C9.7354 8.15625 11.1 8.15833 11.8875 8.94375Z" fill="#333333"/>
</svg>
