<svg id="visual" viewBox="0 0 500 400" width="500" height="400" xmlns="http://www.w3.org/2000/svg" xmlns:xlink="http://www.w3.org/1999/xlink" version="1.1"><path d="M0 274L20.8 261.5C41.7 249 83.3 224 125 231.5C166.7 239 208.3 279 250 289.8C291.7 300.7 333.3 282.3 375 247.2C416.7 212 458.3 160 479.2 134L500 108L500 401L479.2 401C458.3 401 416.7 401 375 401C333.3 401 291.7 401 250 401C208.3 401 166.7 401 125 401C83.3 401 41.7 401 20.8 401L0 401Z" fill="#Ffefef" stroke-linecap="round" stroke-linejoin="miter"></path></svg>