<svg width="428" height="130" viewBox="0 0 428 130" fill="none" xmlns="http://www.w3.org/2000/svg">
<path d="M139.276 5.8C139.276 5.06667 139.643 4.7 140.376 4.7H141.676C142.41 4.7 142.776 5.06667 142.776 5.8V17.9C142.776 18.6333 142.41 19 141.676 19H140.376C139.643 19 139.276 18.6333 139.276 17.9V5.8ZM145.286 17.82C145.179 17.74 145.086 17.6533 145.006 17.56C144.926 17.4533 144.866 17.34 144.826 17.22C144.799 17.0867 144.799 16.9467 144.826 16.8C144.866 16.6533 144.953 16.4867 145.086 16.3L145.706 15.4C145.906 15.1067 146.126 14.9467 146.366 14.92C146.606 14.88 146.893 14.9533 147.226 15.14C147.346 15.2067 147.486 15.2867 147.646 15.38C147.819 15.4733 148.013 15.5733 148.226 15.68C148.453 15.7733 148.699 15.8533 148.966 15.92C149.233 15.9867 149.519 16.02 149.826 16.02C150.346 16.02 150.726 15.9267 150.966 15.74C151.219 15.54 151.346 15.3 151.346 15.02C151.346 14.6867 151.186 14.4067 150.866 14.18C150.559 13.94 150.173 13.72 149.706 13.52C149.239 13.3067 148.733 13.0867 148.186 12.86C147.639 12.62 147.133 12.3267 146.666 11.98C146.199 11.6333 145.806 11.2133 145.486 10.72C145.179 10.2133 145.026 9.58667 145.026 8.84C145.026 8.18667 145.153 7.59333 145.406 7.06C145.673 6.51333 146.033 6.04667 146.486 5.66C146.939 5.27333 147.479 4.98 148.106 4.78C148.733 4.56667 149.406 4.46 150.126 4.46C150.966 4.46 151.733 4.58 152.426 4.82C153.119 5.04667 153.639 5.28 153.986 5.52C154.279 5.73333 154.446 5.96667 154.486 6.22C154.526 6.46 154.473 6.72667 154.326 7.02L153.846 7.96C153.646 8.34667 153.413 8.54667 153.146 8.56C152.893 8.56 152.626 8.48667 152.346 8.34C152.013 8.18 151.666 8.03333 151.306 7.9C150.959 7.75333 150.553 7.68 150.086 7.68C149.526 7.68 149.126 7.78 148.886 7.98C148.646 8.16667 148.526 8.4 148.526 8.68C148.526 9.02667 148.679 9.31333 148.986 9.54C149.306 9.76667 149.699 9.98 150.166 10.18C150.633 10.38 151.139 10.5933 151.686 10.82C152.233 11.0333 152.739 11.3133 153.206 11.66C153.673 11.9933 154.059 12.4133 154.366 12.92C154.686 13.4133 154.846 14.0333 154.846 14.78C154.846 15.38 154.733 15.9533 154.506 16.5C154.293 17.0333 153.973 17.5067 153.546 17.92C153.119 18.32 152.593 18.64 151.966 18.88C151.339 19.12 150.626 19.24 149.826 19.24C149.319 19.24 148.833 19.1933 148.366 19.1C147.913 19.0067 147.486 18.8933 147.086 18.76C146.699 18.6133 146.346 18.46 146.026 18.3C145.719 18.1267 145.473 17.9667 145.286 17.82ZM156.894 5.8C156.894 5.06667 157.26 4.7 157.994 4.7H159.294C160.027 4.7 160.394 5.06667 160.394 5.8V16H165.134C165.867 16 166.234 16.3667 166.234 17.1V17.9C166.234 18.6333 165.867 19 165.134 19H157.994C157.26 19 156.894 18.6333 156.894 17.9V5.8ZM170.695 5.6C170.895 5 171.308 4.7 171.935 4.7H173.735C174.362 4.7 174.775 5 174.975 5.6L179.115 17.74C179.248 18.1267 179.228 18.4333 179.055 18.66C178.895 18.8867 178.615 19 178.215 19H176.895C176.268 19 175.855 18.6933 175.655 18.08L175.055 16H170.595L169.995 18.08C169.822 18.6933 169.415 19 168.775 19H167.455C167.055 19 166.768 18.8867 166.595 18.66C166.435 18.4333 166.422 18.1267 166.555 17.74L170.695 5.6ZM174.235 13.2L173.435 10.42C173.368 10.1933 173.302 9.94 173.235 9.66C173.182 9.38 173.122 9.11333 173.055 8.86C172.988 8.56667 172.922 8.26667 172.855 7.96H172.815C172.748 8.26667 172.682 8.56667 172.615 8.86C172.548 9.11333 172.482 9.38 172.415 9.66C172.362 9.94 172.302 10.1933 172.235 10.42L171.415 13.2H174.235ZM180.761 5.8C180.761 5.06667 181.128 4.7 181.861 4.7H183.421C184.021 4.7 184.461 4.94667 184.741 5.44L188.261 11.38C188.408 11.62 188.548 11.88 188.681 12.16C188.814 12.44 188.941 12.7067 189.061 12.96C189.194 13.2533 189.328 13.54 189.461 13.82H189.501C189.474 13.5267 189.448 13.2333 189.421 12.94C189.394 12.6867 189.374 12.42 189.361 12.14C189.348 11.86 189.341 11.6067 189.341 11.38V5.8C189.341 5.06667 189.708 4.7 190.441 4.7H191.741C192.474 4.7 192.841 5.06667 192.841 5.8V17.9C192.841 18.6333 192.474 19 191.741 19H190.181C189.594 19 189.161 18.7533 188.881 18.26L185.341 12.34C185.194 12.1133 185.048 11.86 184.901 11.58C184.754 11.2867 184.628 11.0133 184.521 10.76C184.374 10.4667 184.248 10.18 184.141 9.9H184.101C184.128 10.1933 184.154 10.4867 184.181 10.78C184.208 11.0333 184.228 11.3 184.241 11.58C184.254 11.86 184.261 12.1133 184.261 12.34V17.9C184.261 18.6333 183.894 19 183.161 19H181.861C181.128 19 180.761 18.6333 180.761 17.9V5.8ZM195.605 5.8C195.605 5.06667 195.971 4.7 196.705 4.7H200.685C201.805 4.7 202.818 4.86 203.725 5.18C204.645 5.5 205.425 5.96667 206.065 6.58C206.705 7.18 207.198 7.92667 207.545 8.82C207.891 9.7 208.065 10.7 208.065 11.82C208.065 12.94 207.891 13.9467 207.545 14.84C207.198 15.7333 206.705 16.4867 206.065 17.1C205.425 17.7133 204.645 18.1867 203.725 18.52C202.818 18.84 201.805 19 200.685 19H196.705C195.971 19 195.605 18.6333 195.605 17.9V5.8ZM200.545 16C201.758 16 202.711 15.6467 203.405 14.94C204.098 14.2333 204.445 13.1933 204.445 11.82C204.445 10.4467 204.091 9.42 203.385 8.74C202.678 8.04667 201.731 7.7 200.545 7.7H199.105V16H200.545ZM215.116 5.8C215.116 5.06667 215.483 4.7 216.216 4.7H217.516C218.25 4.7 218.616 5.06667 218.616 5.8V16H223.356C224.09 16 224.456 16.3667 224.456 17.1V17.9C224.456 18.6333 224.09 19 223.356 19H216.216C215.483 19 215.116 18.6333 215.116 17.9V5.8ZM225.426 5.8C225.426 5.06667 225.792 4.7 226.526 4.7H227.826C228.559 4.7 228.926 5.06667 228.926 5.8V13.74C228.926 14.5 229.146 15.0733 229.586 15.46C230.039 15.8467 230.646 16.04 231.406 16.04C232.166 16.04 232.766 15.8467 233.206 15.46C233.659 15.0733 233.886 14.5 233.886 13.74V5.8C233.886 5.06667 234.252 4.7 234.986 4.7H236.286C237.019 4.7 237.386 5.06667 237.386 5.8V13.74C237.386 14.54 237.239 15.28 236.946 15.96C236.666 16.6267 236.266 17.2067 235.746 17.7C235.226 18.18 234.599 18.56 233.866 18.84C233.132 19.1067 232.319 19.24 231.426 19.24C230.519 19.24 229.692 19.1067 228.946 18.84C228.212 18.56 227.586 18.18 227.066 17.7C226.546 17.2067 226.139 16.6267 225.846 15.96C225.566 15.28 225.426 14.54 225.426 13.74V5.8ZM242.802 11.9L239.242 6.02C239.016 5.63333 238.969 5.32 239.102 5.08C239.249 4.82667 239.542 4.7 239.982 4.7H241.542C242.116 4.7 242.549 4.96 242.842 5.48L243.982 7.64C244.102 7.86667 244.216 8.09333 244.322 8.32C244.429 8.53333 244.522 8.72667 244.602 8.9C244.696 9.1 244.782 9.29333 244.862 9.48H244.902C244.982 9.29333 245.069 9.1 245.162 8.9C245.242 8.72667 245.329 8.53333 245.422 8.32C245.529 8.09333 245.649 7.86667 245.782 7.64L246.942 5.48C247.236 4.96 247.669 4.7 248.242 4.7H249.802C250.242 4.7 250.529 4.82667 250.662 5.08C250.809 5.32 250.769 5.63333 250.542 6.02L246.962 11.9L250.502 17.68C250.742 18.0667 250.789 18.3867 250.642 18.64C250.509 18.88 250.216 19 249.762 19H248.302C247.729 19 247.296 18.74 247.002 18.22L245.782 16C245.649 15.7733 245.529 15.56 245.422 15.36C245.329 15.1467 245.242 14.9533 245.162 14.78C245.069 14.58 244.982 14.3933 244.902 14.22H244.862C244.782 14.3933 244.696 14.58 244.602 14.78C244.522 14.9533 244.429 15.1467 244.322 15.36C244.216 15.56 244.102 15.7733 243.982 16L242.762 18.22C242.469 18.74 242.036 19 241.462 19H240.022C239.569 19 239.269 18.88 239.122 18.64C238.989 18.3867 239.036 18.0667 239.262 17.68L242.802 11.9ZM252.379 5.8C252.379 5.06667 252.745 4.7 253.479 4.7H254.779C255.512 4.7 255.879 5.06667 255.879 5.8V13.74C255.879 14.5 256.099 15.0733 256.539 15.46C256.992 15.8467 257.599 16.04 258.359 16.04C259.119 16.04 259.719 15.8467 260.159 15.46C260.612 15.0733 260.839 14.5 260.839 13.74V5.8C260.839 5.06667 261.205 4.7 261.939 4.7H263.239C263.972 4.7 264.339 5.06667 264.339 5.8V13.74C264.339 14.54 264.192 15.28 263.899 15.96C263.619 16.6267 263.219 17.2067 262.699 17.7C262.179 18.18 261.552 18.56 260.819 18.84C260.085 19.1067 259.272 19.24 258.379 19.24C257.472 19.24 256.645 19.1067 255.899 18.84C255.165 18.56 254.539 18.18 254.019 17.7C253.499 17.2067 253.092 16.6267 252.799 15.96C252.519 15.28 252.379 14.54 252.379 13.74V5.8ZM266.952 5.8C266.952 5.06667 267.319 4.7 268.052 4.7H271.932C272.666 4.7 273.232 4.72667 273.632 4.78C274.046 4.83333 274.406 4.92 274.712 5.04C275.526 5.34667 276.166 5.86 276.632 6.58C277.112 7.28667 277.352 8.16 277.352 9.2C277.352 9.58667 277.306 9.97333 277.212 10.36C277.132 10.7333 276.999 11.1 276.812 11.46C276.639 11.8067 276.419 12.1267 276.152 12.42C275.886 12.7 275.572 12.9267 275.212 13.1V13.14C275.252 13.1933 275.299 13.26 275.352 13.34C275.406 13.4067 275.459 13.5 275.512 13.62C275.579 13.7267 275.659 13.8533 275.752 14L277.792 17.68C278.019 18.0667 278.052 18.3867 277.892 18.64C277.746 18.88 277.459 19 277.032 19H275.512C274.939 19 274.506 18.74 274.212 18.22L272.092 14.18H270.452V17.9C270.452 18.6333 270.086 19 269.352 19H268.052C267.319 19 266.952 18.6333 266.952 17.9V5.8ZM271.972 11.18C272.532 11.18 272.972 11.0333 273.292 10.74C273.626 10.4333 273.792 9.99333 273.792 9.42C273.792 9.06 273.732 8.75333 273.612 8.5C273.506 8.23333 273.286 8.03333 272.952 7.9C272.646 7.76667 272.206 7.7 271.632 7.7H270.452V11.18H271.972ZM282.352 13.14L278.372 6.02C278.145 5.63333 278.105 5.32 278.252 5.08C278.412 4.82667 278.705 4.7 279.132 4.7H280.712C281.312 4.7 281.738 4.97333 281.992 5.52L283.232 8.14C283.338 8.39333 283.445 8.64 283.552 8.88C283.658 9.12 283.752 9.34 283.832 9.54C283.925 9.78 284.012 10 284.092 10.2H284.132C284.212 10 284.298 9.78 284.392 9.54C284.472 9.34 284.558 9.12 284.652 8.88C284.758 8.64 284.872 8.39333 284.992 8.14L286.212 5.52C286.465 4.97333 286.892 4.7 287.492 4.7H289.072C289.498 4.7 289.785 4.82667 289.932 5.08C290.092 5.32 290.058 5.63333 289.832 6.02L285.852 13.14V17.9C285.852 18.6333 285.485 19 284.752 19H283.452C282.718 19 282.352 18.6333 282.352 17.9V13.14Z" fill="white"/>
<path d="M155.344 27.882C155.344 27.431 155.57 27.2055 156.021 27.2055H158.997C159.424 27.2055 159.813 27.2793 160.166 27.4269C160.518 27.5745 160.818 27.7836 161.064 28.0542C161.318 28.3248 161.515 28.6446 161.654 29.0136C161.793 29.3826 161.863 29.7885 161.863 30.2313C161.863 30.6741 161.793 31.0841 161.654 31.4613C161.515 31.8303 161.318 32.1501 161.064 32.4207C160.818 32.6913 160.518 32.9045 160.166 33.0603C159.813 33.2079 159.424 33.2817 158.997 33.2817H157.497V35.3235C157.497 35.7745 157.271 36 156.82 36H156.021C155.57 36 155.344 35.7745 155.344 35.3235V27.882ZM158.554 31.4367C158.932 31.4367 159.21 31.326 159.391 31.1046C159.579 30.875 159.674 30.5839 159.674 30.2313C159.674 29.8787 159.584 29.5958 159.403 29.3826C159.223 29.1612 158.952 29.0505 158.591 29.0505H157.497V31.4367H158.554ZM162.924 27.882C162.924 27.431 163.149 27.2055 163.6 27.2055H165.986C166.437 27.2055 166.786 27.2219 167.032 27.2547C167.286 27.2875 167.507 27.3408 167.696 27.4146C168.196 27.6032 168.59 27.9189 168.877 28.3617C169.172 28.7963 169.32 29.3334 169.32 29.973C169.32 30.2108 169.291 30.4486 169.233 30.6864C169.184 30.916 169.102 31.1415 168.987 31.3629C168.881 31.5761 168.746 31.7729 168.582 31.9533C168.418 32.1255 168.225 32.2649 168.003 32.3715V32.3961C168.028 32.4289 168.057 32.4699 168.09 32.5191C168.122 32.5601 168.155 32.6175 168.188 32.6913C168.229 32.7569 168.278 32.8348 168.336 32.925L169.59 35.1882C169.73 35.426 169.75 35.6228 169.652 35.7786C169.561 35.9262 169.385 36 169.123 36H168.188C167.835 36 167.569 35.8401 167.388 35.5203L166.085 33.0357H165.076V35.3235C165.076 35.7745 164.851 36 164.4 36H163.6C163.149 36 162.924 35.7745 162.924 35.3235V27.882ZM166.011 31.1907C166.355 31.1907 166.626 31.1005 166.823 30.9201C167.028 30.7315 167.13 30.4609 167.13 30.1083C167.13 29.8869 167.093 29.6983 167.019 29.5425C166.954 29.3785 166.819 29.2555 166.614 29.1735C166.425 29.0915 166.154 29.0505 165.802 29.0505H165.076V31.1907H166.011ZM170.252 31.5474C170.252 30.916 170.363 30.3297 170.584 29.7885C170.806 29.2391 171.117 28.7635 171.519 28.3617C171.929 27.9517 172.417 27.6319 172.983 27.4023C173.548 27.1727 174.172 27.0579 174.852 27.0579C175.533 27.0579 176.156 27.1727 176.722 27.4023C177.288 27.6319 177.771 27.9517 178.173 28.3617C178.583 28.7635 178.899 29.2391 179.12 29.7885C179.342 30.3297 179.452 30.916 179.452 31.5474C179.452 32.1952 179.342 32.7979 179.12 33.3555C178.899 33.9131 178.583 34.401 178.173 34.8192C177.771 35.2292 177.288 35.5531 176.722 35.7909C176.156 36.0287 175.533 36.1476 174.852 36.1476C174.172 36.1476 173.548 36.0287 172.983 35.7909C172.417 35.5531 171.929 35.2292 171.519 34.8192C171.117 34.401 170.806 33.9131 170.584 33.3555C170.363 32.7979 170.252 32.1952 170.252 31.5474ZM172.478 31.5474C172.478 31.9246 172.536 32.2731 172.651 32.5929C172.774 32.9127 172.938 33.1915 173.143 33.4293C173.356 33.6589 173.606 33.8434 173.893 33.9828C174.188 34.114 174.508 34.1796 174.852 34.1796C175.197 34.1796 175.512 34.114 175.799 33.9828C176.095 33.8434 176.345 33.6589 176.55 33.4293C176.763 33.1915 176.927 32.9127 177.042 32.5929C177.165 32.2731 177.226 31.9246 177.226 31.5474C177.226 31.1866 177.165 30.8545 177.042 30.5511C176.927 30.2395 176.763 29.973 176.55 29.7516C176.345 29.522 176.095 29.3457 175.799 29.2227C175.512 29.0915 175.197 29.0259 174.852 29.0259C174.508 29.0259 174.188 29.0915 173.893 29.2227C173.606 29.3457 173.356 29.522 173.143 29.7516C172.938 29.973 172.774 30.2395 172.651 30.5511C172.536 30.8545 172.478 31.1866 172.478 31.5474ZM180.689 27.882C180.689 27.431 180.914 27.2055 181.365 27.2055H184.342C184.768 27.2055 185.158 27.2793 185.51 27.4269C185.863 27.5745 186.162 27.7836 186.408 28.0542C186.663 28.3248 186.859 28.6446 186.999 29.0136C187.138 29.3826 187.208 29.7885 187.208 30.2313C187.208 30.6741 187.138 31.0841 186.999 31.4613C186.859 31.8303 186.663 32.1501 186.408 32.4207C186.162 32.6913 185.863 32.9045 185.51 33.0603C185.158 33.2079 184.768 33.2817 184.342 33.2817H182.841V35.3235C182.841 35.7745 182.616 36 182.165 36H181.365C180.914 36 180.689 35.7745 180.689 35.3235V27.882ZM183.899 31.4367C184.276 31.4367 184.555 31.326 184.736 31.1046C184.924 30.875 185.018 30.5839 185.018 30.2313C185.018 29.8787 184.928 29.5958 184.748 29.3826C184.567 29.1612 184.297 29.0505 183.936 29.0505H182.841V31.4367H183.899ZM188.268 27.882C188.268 27.431 188.494 27.2055 188.945 27.2055H193.102C193.553 27.2055 193.779 27.431 193.779 27.882V28.374C193.779 28.825 193.553 29.0505 193.102 29.0505H190.421V30.6495H192.426C192.877 30.6495 193.102 30.875 193.102 31.326V31.818C193.102 32.269 192.877 32.4945 192.426 32.4945H190.421V34.155H193.274C193.725 34.155 193.951 34.3805 193.951 34.8315V35.3235C193.951 35.7745 193.725 36 193.274 36H188.945C188.494 36 188.268 35.7745 188.268 35.3235V27.882ZM195.151 27.882C195.151 27.431 195.376 27.2055 195.827 27.2055H198.214C198.665 27.2055 199.013 27.2219 199.259 27.2547C199.513 27.2875 199.735 27.3408 199.923 27.4146C200.424 27.6032 200.817 27.9189 201.104 28.3617C201.399 28.7963 201.547 29.3334 201.547 29.973C201.547 30.2108 201.518 30.4486 201.461 30.6864C201.412 30.916 201.33 31.1415 201.215 31.3629C201.108 31.5761 200.973 31.7729 200.809 31.9533C200.645 32.1255 200.452 32.2649 200.231 32.3715V32.3961C200.255 32.4289 200.284 32.4699 200.317 32.5191C200.35 32.5601 200.383 32.6175 200.415 32.6913C200.456 32.7569 200.506 32.8348 200.563 32.925L201.818 35.1882C201.957 35.426 201.977 35.6228 201.879 35.7786C201.789 35.9262 201.613 36 201.35 36H200.415C200.063 36 199.796 35.8401 199.616 35.5203L198.312 33.0357H197.303V35.3235C197.303 35.7745 197.078 36 196.627 36H195.827C195.376 36 195.151 35.7745 195.151 35.3235V27.882ZM198.238 31.1907C198.583 31.1907 198.853 31.1005 199.05 30.9201C199.255 30.7315 199.358 30.4609 199.358 30.1083C199.358 29.8869 199.321 29.6983 199.247 29.5425C199.181 29.3785 199.046 29.2555 198.841 29.1735C198.652 29.0915 198.382 29.0505 198.029 29.0505H197.303V31.1907H198.238ZM204.745 29.0505H202.752C202.301 29.0505 202.076 28.825 202.076 28.374V27.882C202.076 27.431 202.301 27.2055 202.752 27.2055H208.89C209.341 27.2055 209.566 27.431 209.566 27.882V28.374C209.566 28.825 209.341 29.0505 208.89 29.0505H206.897V35.3235C206.897 35.7745 206.672 36 206.221 36H205.421C204.97 36 204.745 35.7745 204.745 35.3235V29.0505ZM212.261 32.3961L209.813 28.0173C209.674 27.7795 209.649 27.5868 209.74 27.4392C209.838 27.2834 210.018 27.2055 210.281 27.2055H211.253C211.622 27.2055 211.884 27.3736 212.04 27.7098L212.802 29.3211C212.868 29.4769 212.934 29.6286 212.999 29.7762C213.065 29.9238 213.122 30.0591 213.171 30.1821C213.229 30.3297 213.282 30.465 213.331 30.588H213.356C213.405 30.465 213.458 30.3297 213.516 30.1821C213.565 30.0591 213.618 29.9238 213.676 29.7762C213.741 29.6286 213.811 29.4769 213.885 29.3211L214.635 27.7098C214.791 27.3736 215.053 27.2055 215.422 27.2055H216.394C216.656 27.2055 216.833 27.2834 216.923 27.4392C217.021 27.5868 217.001 27.7795 216.861 28.0173L214.414 32.3961V35.3235C214.414 35.7745 214.188 36 213.737 36H212.938C212.487 36 212.261 35.7745 212.261 35.3235V32.3961ZM220.952 27.882C220.952 27.431 221.178 27.2055 221.629 27.2055H222.428C222.879 27.2055 223.105 27.431 223.105 27.882V34.155H226.02C226.471 34.155 226.696 34.3805 226.696 34.8315V35.3235C226.696 35.7745 226.471 36 226.02 36H221.629C221.178 36 220.952 35.7745 220.952 35.3235V27.882ZM227.583 27.882C227.583 27.431 227.808 27.2055 228.259 27.2055H229.059C229.51 27.2055 229.735 27.431 229.735 27.882V35.3235C229.735 35.7745 229.51 36 229.059 36H228.259C227.808 36 227.583 35.7745 227.583 35.3235V27.882ZM231.278 35.2743C231.213 35.2251 231.155 35.1718 231.106 35.1144C231.057 35.0488 231.02 34.9791 230.996 34.9053C230.979 34.8233 230.979 34.7372 230.996 34.647C231.02 34.5568 231.073 34.4543 231.155 34.3395L231.537 33.786C231.66 33.6056 231.795 33.5072 231.943 33.4908C232.09 33.4662 232.267 33.5113 232.472 33.6261C232.545 33.6671 232.631 33.7163 232.73 33.7737C232.836 33.8311 232.955 33.8926 233.087 33.9582C233.226 34.0156 233.378 34.0648 233.542 34.1058C233.706 34.1468 233.882 34.1673 234.071 34.1673C234.39 34.1673 234.624 34.1099 234.772 33.9951C234.927 33.8721 235.005 33.7245 235.005 33.5523C235.005 33.3473 234.907 33.1751 234.71 33.0357C234.522 32.8881 234.284 32.7528 233.997 32.6298C233.71 32.4986 233.398 32.3633 233.062 32.2239C232.726 32.0763 232.414 31.8959 232.127 31.6827C231.84 31.4695 231.598 31.2112 231.401 30.9078C231.213 30.5962 231.119 30.2108 231.119 29.7516C231.119 29.3498 231.196 28.9849 231.352 28.6569C231.516 28.3207 231.738 28.0337 232.016 27.7959C232.295 27.5581 232.627 27.3777 233.013 27.2547C233.398 27.1235 233.812 27.0579 234.255 27.0579C234.772 27.0579 235.243 27.1317 235.67 27.2793C236.096 27.4187 236.416 27.5622 236.629 27.7098C236.809 27.841 236.912 27.9845 236.936 28.1403C236.961 28.2879 236.928 28.4519 236.838 28.6323L236.543 29.2104C236.42 29.4482 236.276 29.5712 236.112 29.5794C235.957 29.5794 235.793 29.5343 235.62 29.4441C235.415 29.3457 235.202 29.2555 234.981 29.1735C234.768 29.0833 234.517 29.0382 234.23 29.0382C233.886 29.0382 233.64 29.0997 233.492 29.2227C233.345 29.3375 233.271 29.481 233.271 29.6532C233.271 29.8664 233.365 30.0427 233.554 30.1821C233.751 30.3215 233.993 30.4527 234.28 30.5757C234.567 30.6987 234.878 30.8299 235.214 30.9693C235.551 31.1005 235.862 31.2727 236.149 31.4859C236.436 31.6909 236.674 31.9492 236.863 32.2608C237.059 32.5642 237.158 32.9455 237.158 33.4047C237.158 33.7737 237.088 34.1263 236.949 34.4625C236.818 34.7905 236.621 35.0816 236.358 35.3358C236.096 35.5818 235.772 35.7786 235.387 35.9262C235.001 36.0738 234.563 36.1476 234.071 36.1476C233.759 36.1476 233.46 36.1189 233.173 36.0615C232.894 36.0041 232.631 35.9344 232.385 35.8524C232.148 35.7622 231.93 35.6679 231.734 35.5695C231.545 35.4629 231.393 35.3645 231.278 35.2743ZM240.311 29.0505H238.319C237.868 29.0505 237.642 28.825 237.642 28.374V27.882C237.642 27.431 237.868 27.2055 238.319 27.2055H244.457C244.908 27.2055 245.133 27.431 245.133 27.882V28.374C245.133 28.825 244.908 29.0505 244.457 29.0505H242.464V35.3235C242.464 35.7745 242.238 36 241.787 36H240.988C240.537 36 240.311 35.7745 240.311 35.3235V29.0505ZM246.057 27.882C246.057 27.431 246.282 27.2055 246.733 27.2055H247.533C247.984 27.2055 248.209 27.431 248.209 27.882V35.3235C248.209 35.7745 247.984 36 247.533 36H246.733C246.282 36 246.057 35.7745 246.057 35.3235V27.882ZM249.912 27.882C249.912 27.431 250.138 27.2055 250.589 27.2055H251.548C251.917 27.2055 252.188 27.3572 252.36 27.6606L254.525 31.3137C254.615 31.4613 254.701 31.6212 254.783 31.7934C254.865 31.9656 254.943 32.1296 255.017 32.2854C255.099 32.4658 255.181 32.6421 255.263 32.8143H255.288C255.271 32.6339 255.255 32.4535 255.238 32.2731C255.222 32.1173 255.21 31.9533 255.201 31.7811C255.193 31.6089 255.189 31.4531 255.189 31.3137V27.882C255.189 27.431 255.415 27.2055 255.866 27.2055H256.665C257.116 27.2055 257.342 27.431 257.342 27.882V35.3235C257.342 35.7745 257.116 36 256.665 36H255.706C255.345 36 255.078 35.8483 254.906 35.5449L252.729 31.9041C252.639 31.7647 252.549 31.6089 252.459 31.4367C252.368 31.2563 252.29 31.0882 252.225 30.9324C252.135 30.752 252.057 30.5757 251.991 30.4035H251.967C251.983 30.5839 251.999 30.7643 252.016 30.9447C252.032 31.1005 252.044 31.2645 252.053 31.4367C252.061 31.6089 252.065 31.7647 252.065 31.9041V35.3235C252.065 35.7745 251.839 36 251.388 36H250.589C250.138 36 249.912 35.7745 249.912 35.3235V27.882ZM258.586 31.6581C258.586 30.9857 258.701 30.3707 258.931 29.8131C259.16 29.2473 259.48 28.7635 259.89 28.3617C260.3 27.9517 260.788 27.6319 261.354 27.4023C261.92 27.1727 262.539 27.0579 263.211 27.0579C263.564 27.0579 263.892 27.0866 264.195 27.144C264.507 27.2014 264.785 27.2711 265.031 27.3531C265.277 27.4269 265.487 27.5089 265.659 27.5991C265.839 27.6893 265.974 27.7672 266.065 27.8328C266.253 27.9722 266.356 28.1157 266.372 28.2633C266.397 28.4109 266.352 28.579 266.237 28.7676L265.917 29.2719C265.802 29.4605 265.667 29.5671 265.511 29.5917C265.364 29.6081 265.187 29.563 264.982 29.4564C264.777 29.3498 264.548 29.2514 264.293 29.1612C264.047 29.071 263.732 29.0259 263.346 29.0259C262.904 29.0259 262.522 29.0956 262.202 29.235C261.891 29.3662 261.628 29.5507 261.415 29.7885C261.21 30.0181 261.059 30.2846 260.96 30.588C260.862 30.8914 260.813 31.2071 260.813 31.5351C260.813 31.9451 260.878 32.3141 261.009 32.6421C261.149 32.9619 261.329 33.2366 261.551 33.4662C261.78 33.6958 262.047 33.8721 262.35 33.9951C262.653 34.1181 262.973 34.1796 263.309 34.1796C263.621 34.1796 263.892 34.1427 264.121 34.0689C264.351 33.9951 264.539 33.9131 264.687 33.8229C264.859 33.7245 265.003 33.6056 265.118 33.4662V32.8635H264.552C264.101 32.8635 263.875 32.638 263.875 32.187V31.7073C263.875 31.2563 264.101 31.0308 264.552 31.0308H266.348C266.799 31.0308 267.024 31.2563 267.024 31.7073V35.3235C267.024 35.7745 266.799 36 266.348 36H265.942C265.72 36 265.552 35.9508 265.437 35.8524C265.323 35.7458 265.265 35.6187 265.265 35.4711V35.4465V35.3604C265.265 35.344 265.269 35.3317 265.277 35.3235H265.253C265.097 35.4793 264.904 35.6187 264.675 35.7417C264.478 35.8483 264.232 35.9426 263.937 36.0246C263.65 36.1066 263.309 36.1476 262.916 36.1476C262.35 36.1476 261.805 36.0451 261.28 35.8401C260.763 35.6269 260.304 35.3276 259.902 34.9422C259.501 34.5568 259.181 34.0853 258.943 33.5277C258.705 32.9701 258.586 32.3469 258.586 31.6581ZM268.215 35.2743C268.149 35.2251 268.092 35.1718 268.042 35.1144C267.993 35.0488 267.956 34.9791 267.932 34.9053C267.915 34.8233 267.915 34.7372 267.932 34.647C267.956 34.5568 268.01 34.4543 268.092 34.3395L268.473 33.786C268.596 33.6056 268.731 33.5072 268.879 33.4908C269.026 33.4662 269.203 33.5113 269.408 33.6261C269.481 33.6671 269.568 33.7163 269.666 33.7737C269.773 33.8311 269.891 33.8926 270.023 33.9582C270.162 34.0156 270.314 34.0648 270.478 34.1058C270.642 34.1468 270.818 34.1673 271.007 34.1673C271.326 34.1673 271.56 34.1099 271.708 33.9951C271.864 33.8721 271.941 33.7245 271.941 33.5523C271.941 33.3473 271.843 33.1751 271.646 33.0357C271.458 32.8881 271.22 32.7528 270.933 32.6298C270.646 32.4986 270.334 32.3633 269.998 32.2239C269.662 32.0763 269.35 31.8959 269.063 31.6827C268.776 31.4695 268.534 31.2112 268.338 30.9078C268.149 30.5962 268.055 30.2108 268.055 29.7516C268.055 29.3498 268.133 28.9849 268.288 28.6569C268.452 28.3207 268.674 28.0337 268.953 27.7959C269.231 27.5581 269.563 27.3777 269.949 27.2547C270.334 27.1235 270.748 27.0579 271.191 27.0579C271.708 27.0579 272.179 27.1317 272.606 27.2793C273.032 27.4187 273.352 27.5622 273.565 27.7098C273.745 27.841 273.848 27.9845 273.873 28.1403C273.897 28.2879 273.864 28.4519 273.774 28.6323L273.479 29.2104C273.356 29.4482 273.212 29.5712 273.048 29.5794C272.893 29.5794 272.729 29.5343 272.556 29.4441C272.351 29.3457 272.138 29.2555 271.917 29.1735C271.704 29.0833 271.454 29.0382 271.167 29.0382C270.822 29.0382 270.576 29.0997 270.429 29.2227C270.281 29.3375 270.207 29.481 270.207 29.6532C270.207 29.8664 270.301 30.0427 270.49 30.1821C270.687 30.3215 270.929 30.4527 271.216 30.5757C271.503 30.6987 271.814 30.8299 272.151 30.9693C272.487 31.1005 272.798 31.2727 273.085 31.4859C273.372 31.6909 273.61 31.9492 273.799 32.2608C273.996 32.5642 274.094 32.9455 274.094 33.4047C274.094 33.7737 274.024 34.1263 273.885 34.4625C273.754 34.7905 273.557 35.0816 273.294 35.3358C273.032 35.5818 272.708 35.7786 272.323 35.9262C271.937 36.0738 271.499 36.1476 271.007 36.1476C270.695 36.1476 270.396 36.1189 270.109 36.0615C269.83 36.0041 269.568 35.9344 269.322 35.8524C269.084 35.7622 268.866 35.6679 268.67 35.5695C268.481 35.4629 268.329 35.3645 268.215 35.2743Z" fill="white"/>
<path d="M134 31.5H150" stroke="#FDEEA5" stroke-width="3" stroke-linecap="round"/>
<path d="M279 32H295" stroke="#FDEEA5" stroke-width="3" stroke-linecap="round"/>
</svg>
