<svg id="visual" viewBox="0 0 500 200" width="500" height="200" xmlns="http://www.w3.org/2000/svg" xmlns:xlink="http://www.w3.org/1999/xlink" version="1.1"><path d="M0 161L20.8 157.3C41.7 153.7 83.3 146.3 125 148.7C166.7 151 208.3 163 250 166.2C291.7 169.3 333.3 163.7 375 153.2C416.7 142.7 458.3 127.3 479.2 119.7L500 112L500 201L479.2 201C458.3 201 416.7 201 375 201C333.3 201 291.7 201 250 201C208.3 201 166.7 201 125 201C83.3 201 41.7 201 20.8 201L0 201Z" fill="#Ffefef" stroke-linecap="round" stroke-linejoin="miter"></path></svg>